<svg width="116" height="45" viewBox="0 0 116 45" fill="none" xmlns="http://www.w3.org/2000/svg">
  <g clip-path="url(#clip0_2_2)">
    <path
      d="M27.5347 0C23.0046 0 18.6601 1.81508 15.4569 5.04594L5.00281 15.5901C1.79956 18.8209 0 23.2029 0 27.772C0 37.2868 7.64728 45 17.0807 45C21.6108 45 25.9553 43.1848 29.1585 39.954L36.3896 32.6606C36.3898 32.6607 36.3896 32.6604 36.3896 32.6606L57.4587 11.4099C58.9885 9.86687 61.0634 9 63.227 9C66.8492 9 69.92 11.3811 70.9847 14.6761L77.634 7.96944C74.6006 3.17751 69.2817 0 63.227 0C58.6969 0 54.3524 1.81508 51.1492 5.04594L22.849 33.5901C21.3192 35.1332 19.2442 36 17.0807 36C12.5754 36 8.92308 32.3163 8.92308 27.772C8.92308 25.5898 9.78253 23.497 11.3124 21.954L21.7664 11.4099C23.2962 9.86687 25.3711 9 27.5347 9C31.157 9 34.2277 11.3812 35.2924 14.6763L41.9419 7.9696C38.9085 3.1776 33.5896 0 27.5347 0Z"
      fill="#3B82F6" />
    <path
      d="M58.5413 33.5901C57.0115 35.1332 54.9366 36 52.773 36C49.1513 36 46.0807 33.6195 45.0157 30.3251L38.3666 37.0316C41.4001 41.8228 46.7187 45 52.773 45C57.3031 45 61.6476 43.1848 64.8508 39.954L93.151 11.4099C94.6808 9.86687 96.7557 9 98.9193 9C103.425 9 107.077 12.6838 107.077 17.228C107.077 19.4102 106.217 21.503 104.688 23.046L94.2336 33.5901C92.7038 35.1332 90.6289 36 88.4653 36C84.8433 36 81.7726 33.619 80.7077 30.3243L74.0586 37.0309C77.092 41.8227 82.4107 45 88.4653 45C92.9954 45 97.3399 43.1848 100.543 39.954L110.997 29.4099C114.2 26.1791 116 21.7971 116 17.228C116 7.71321 108.353 0 98.9193 0C94.3892 0 90.0447 1.81508 86.8415 5.04594L58.5413 33.5901Z"
      fill="#3B82F6" />
  </g>
  <defs>
    <clipPath id="clip0_2_2">
      <rect width="116" height="45" fill="white" />
    </clipPath>
  </defs>
</svg>
